<svg xmlns="http://www.w3.org/2000/svg" width="128" height="128" version="1.1">
  <path d="m 29.09375,11.234375 c -3.183804,0 -5.71875,2.566196 -5.71875,5.75 l 0,94.031255 c 0,3.1838 2.534946,5.75 5.71875,5.75 l 69.8125,0 c 3.1838,0 5.71875,-2.5662 5.71875,-5.75 l 0,-70.656255 -21.03125,0 c -4.306108,0 -8.0625,-3.141109 -8.0625,-7.3125 l 0,-21.8125 -46.4375,0 z m 50.4375,0 0,21.8125 c 0,1.714122 1.631968,3.3125 4.0625,3.3125 l 21.03125,0 -25.09375,-25.125 z M 64,45.640625 c 8.462853,0 15.375,6.91215 15.375,15.375 l 0,9.125 c 3.356433,0.7473 5.84375,3.724511 5.84375,7.3125 l 0,17.53125 c 0,4.154724 -3.314025,7.500005 -7.46875,7.500005 l -27.5,0 c -4.154725,0 -7.5,-3.345281 -7.5,-7.500005 l 0,-17.53125 c 0,-3.597001 2.505807,-6.574596 5.875,-7.3125 l 0,-9.125 c 0,-8.46285 6.912151,-15.375 15.375,-15.375 z m 0,5.125 c -5.692497,0 -10.25,4.557502 -10.25,10.25 l 0,8.96875 20.5,0 0,-8.96875 c 0,-5.692498 -4.5575,-10.25 -10.25,-10.25 z"
    fill="#C5A5A5" stroke="black" stroke-width="2"/>
</svg>
