<?xml version="1.0" encoding="utf-8"?>
<!-- Generator: Adobe Illustrator 27.5.0, SVG Export Plug-In . SVG Version: 6.00 Build 0)  -->
<svg version="1.1" id="Capa_1" xmlns="http://www.w3.org/2000/svg" xmlns:xlink="http://www.w3.org/1999/xlink" x="0px" y="0px"
	 viewBox="0 0 425.197 355" style="enable-background:new 0 0 425.197 355;" xml:space="preserve">
<g>
	<rect y="0" style="fill:#93CED4;" width="425.197" height="355"/>
	<ellipse style="fill:#5EA6B3;" cx="315.528" cy="321.354" rx="43.286" ry="11.646"/>
	<ellipse style="fill:#5EA6B3;" cx="111.805" cy="318.864" rx="32.798" ry="8.824"/>
	<ellipse style="fill:#5EA6B3;" cx="211.749" cy="313.996" rx="57.168" ry="11.646"/>
	<g>
		<g>
			
				<line style="fill:none;stroke:#44535A;stroke-width:2.5082;stroke-miterlimit:10;" x1="294.315" y1="65.558" x2="294.315" y2="57.997"/>
			
				<line style="fill:none;stroke:#44535A;stroke-width:2.5082;stroke-miterlimit:10;" x1="290.535" y1="61.777" x2="298.096" y2="61.777"/>
			
				<line style="fill:none;stroke:#44535A;stroke-width:2.5082;stroke-miterlimit:10;" x1="304.988" y1="61.777" x2="338.344" y2="61.777"/>
			
				<line style="fill:none;stroke:#44535A;stroke-width:2.5082;stroke-miterlimit:10;" x1="342.348" y1="61.777" x2="350.352" y2="61.777"/>
		</g>
		<g>
			
				<line style="fill:none;stroke:#44535A;stroke-width:2.5082;stroke-miterlimit:10;" x1="246.505" y1="41.263" x2="246.505" y2="33.702"/>
			
				<line style="fill:none;stroke:#44535A;stroke-width:2.5082;stroke-miterlimit:10;" x1="242.725" y1="37.482" x2="250.286" y2="37.482"/>
			
				<line style="fill:none;stroke:#44535A;stroke-width:2.5082;stroke-miterlimit:10;" x1="257.179" y1="37.482" x2="290.535" y2="37.482"/>
			
				<line style="fill:none;stroke:#44535A;stroke-width:2.5082;stroke-miterlimit:10;" x1="294.536" y1="37.482" x2="302.542" y2="37.482"/>
		</g>
		<g>
			
				<line style="fill:none;stroke:#44535A;stroke-width:2.5082;stroke-miterlimit:10;" x1="95.873" y1="80.436" x2="95.873" y2="72.874"/>
			
				<line style="fill:none;stroke:#44535A;stroke-width:2.5082;stroke-miterlimit:10;" x1="92.092" y1="76.654" x2="99.653" y2="76.654"/>
			
				<line style="fill:none;stroke:#44535A;stroke-width:2.5082;stroke-miterlimit:10;" x1="106.547" y1="76.654" x2="139.902" y2="76.654"/>
			
				<line style="fill:none;stroke:#44535A;stroke-width:2.5082;stroke-miterlimit:10;" x1="143.903" y1="76.654" x2="151.909" y2="76.654"/>
		</g>
		<g>
			
				<line style="fill:none;stroke:#44535A;stroke-width:2.5082;stroke-miterlimit:10;" x1="23.084" y1="129.71" x2="23.084" y2="122.149"/>
			
				<line style="fill:none;stroke:#44535A;stroke-width:2.5082;stroke-miterlimit:10;" x1="19.304" y1="125.931" x2="26.864" y2="125.931"/>
			
				<line style="fill:none;stroke:#44535A;stroke-width:2.5082;stroke-miterlimit:10;" x1="33.759" y1="125.931" x2="67.114" y2="125.931"/>
			
				<line style="fill:none;stroke:#44535A;stroke-width:2.5082;stroke-miterlimit:10;" x1="71.116" y1="125.931" x2="79.121" y2="125.931"/>
		</g>
		<g>
			
				<line style="fill:none;stroke:#44535A;stroke-width:2.5082;stroke-miterlimit:10;" x1="337.774" y1="137.559" x2="337.774" y2="129.999"/>
			
				<line style="fill:none;stroke:#44535A;stroke-width:2.5082;stroke-miterlimit:10;" x1="333.992" y1="133.779" x2="341.553" y2="133.779"/>
			
				<line style="fill:none;stroke:#44535A;stroke-width:2.5082;stroke-miterlimit:10;" x1="348.447" y1="133.779" x2="381.801" y2="133.779"/>
			
				<line style="fill:none;stroke:#44535A;stroke-width:2.5082;stroke-miterlimit:10;" x1="385.804" y1="133.779" x2="393.81" y2="133.779"/>
		</g>
		<g>
			
				<line style="fill:none;stroke:#44535A;stroke-width:2.5082;stroke-miterlimit:10;" x1="364.107" y1="190.871" x2="397.463" y2="190.871"/>
			
				<line style="fill:none;stroke:#44535A;stroke-width:2.5082;stroke-miterlimit:10;" x1="400.132" y1="190.871" x2="404.134" y2="190.871"/>
			
				<line style="fill:none;stroke:#44535A;stroke-width:2.5082;stroke-miterlimit:10;" x1="406.135" y1="190.871" x2="410.138" y2="190.871"/>
		</g>
		<g>
			
				<line style="fill:none;stroke:#44535A;stroke-width:2.5082;stroke-miterlimit:10;" x1="139.902" y1="37.656" x2="173.257" y2="37.656"/>
			
				<line style="fill:none;stroke:#44535A;stroke-width:2.5082;stroke-miterlimit:10;" x1="175.926" y1="37.656" x2="179.928" y2="37.656"/>
			
				<line style="fill:none;stroke:#44535A;stroke-width:2.5082;stroke-miterlimit:10;" x1="181.93" y1="37.656" x2="185.933" y2="37.656"/>
		</g>
		<g>
			
				<line style="fill:none;stroke:#44535A;stroke-width:2.5082;stroke-miterlimit:10;" x1="27.419" y1="192.464" x2="60.776" y2="192.464"/>
			
				<line style="fill:none;stroke:#44535A;stroke-width:2.5082;stroke-miterlimit:10;" x1="63.444" y1="192.464" x2="67.447" y2="192.464"/>
			
				<line style="fill:none;stroke:#44535A;stroke-width:2.5082;stroke-miterlimit:10;" x1="69.448" y1="192.464" x2="73.451" y2="192.464"/>
		</g>
		<g>
			
				<line style="fill:none;stroke:#44535A;stroke-width:2.5082;stroke-miterlimit:10;" x1="345.733" y1="88.488" x2="341.251" y2="92.971"/>
			
				<line style="fill:none;stroke:#44535A;stroke-width:2.5082;stroke-miterlimit:10;" x1="345.733" y1="92.971" x2="341.251" y2="88.488"/>
		</g>
		<g>
			
				<line style="fill:none;stroke:#44535A;stroke-width:2.5082;stroke-miterlimit:10;" x1="211.059" y1="63.571" x2="206.577" y2="68.052"/>
			
				<line style="fill:none;stroke:#44535A;stroke-width:2.5082;stroke-miterlimit:10;" x1="211.059" y1="68.052" x2="206.578" y2="63.571"/>
		</g>
		<g>
			
				<line style="fill:none;stroke:#44535A;stroke-width:2.5082;stroke-miterlimit:10;" x1="72.263" y1="98.802" x2="67.781" y2="103.286"/>
			
				<line style="fill:none;stroke:#44535A;stroke-width:2.5082;stroke-miterlimit:10;" x1="72.263" y1="103.286" x2="67.781" y2="98.805"/>
		</g>
		<g>
			
				<line style="fill:none;stroke:#44535A;stroke-width:2.5082;stroke-miterlimit:10;" x1="67.688" y1="156.686" x2="63.205" y2="161.169"/>
			
				<line style="fill:none;stroke:#44535A;stroke-width:2.5082;stroke-miterlimit:10;" x1="67.688" y1="161.169" x2="63.205" y2="156.689"/>
		</g>
		<g>
			
				<line style="fill:none;stroke:#44535A;stroke-width:2.5082;stroke-miterlimit:10;" x1="67.688" y1="245.563" x2="63.205" y2="250.046"/>
			
				<line style="fill:none;stroke:#44535A;stroke-width:2.5082;stroke-miterlimit:10;" x1="67.688" y1="250.046" x2="63.205" y2="245.564"/>
		</g>
		<g>
			
				<line style="fill:none;stroke:#44535A;stroke-width:2.5082;stroke-miterlimit:10;" x1="384.042" y1="157.289" x2="379.561" y2="161.77"/>
			
				<line style="fill:none;stroke:#44535A;stroke-width:2.5082;stroke-miterlimit:10;" x1="384.042" y1="161.77" x2="379.561" y2="157.289"/>
		</g>
		<g>
			
				<line style="fill:none;stroke:#44535A;stroke-width:2.5082;stroke-miterlimit:10;" x1="369.606" y1="228.428" x2="365.122" y2="232.912"/>
			
				<line style="fill:none;stroke:#44535A;stroke-width:2.5082;stroke-miterlimit:10;" x1="369.606" y1="232.912" x2="365.125" y2="228.428"/>
		</g>
	</g>
	<g>
		
			<rect x="257.069" y="147.062" transform="matrix(0.8711 -0.4912 0.4912 0.8711 -48.1401 179.9053)" style="fill:#C86C18;" width="123.053" height="69.167"/>
		<polygon style="fill:#F7941D;" points="313.725,173.005 281.989,241.99 389.176,181.55 		"/>
		<polygon style="fill:#FDB714;" points="323.468,190.286 248.016,181.74 355.204,121.301 		"/>
	</g>
	<path style="fill:#289FAA;" d="M267.395,81.625c-1.401,0-2.728,0.288-3.967,0.753c-2.109-6.986-8.59-12.078-16.265-12.078
		c-2.654,0-5.156,0.627-7.394,1.711c-3.485-8.598-11.904-14.669-21.751-14.669c-11.317,0-20.762,8.011-22.978,18.671
		c-6.451,1.384-11.288,7.112-11.288,13.976c0,7.897,6.403,14.301,14.3,14.301c3.249,0,65.721,0,69.342,0
		c6.258,0,11.332-5.074,11.332-11.333C278.727,86.699,273.652,81.625,267.395,81.625z"/>
	<g>
		<path style="fill:#001A33;" d="M342.366,314.704c0,2.297-1.749,4.16-3.905,4.16h-47.059c-2.156,0-3.905-1.863-3.905-4.16v-50.748
			c0-2.298,1.749-4.161,3.905-4.161h47.059c2.157,0,3.905,1.863,3.905,4.161V314.704z"/>
		<path style="fill:#013B5A;" d="M337.214,315.094c0,2.082-1.585,3.77-3.539,3.77h-42.639c-1.955,0-3.539-1.688-3.539-3.77v-45.981
			c0-2.082,1.585-3.77,3.539-3.77h42.639c1.954,0,3.539,1.688,3.539,3.77V315.094z"/>
		<path style="fill:#FFFFFF;" d="M303.149,261.476v-8.811c0-5.455,4.15-11.867,12.048-11.867c8.033,0,12.049,6.412,12.049,11.867
			v8.811h5.274v-13.528c0-7.482-7.755-13.547-17.322-13.547c-9.567,0-17.323,6.066-17.323,13.547v13.528H303.149z"/>
		<g>
			<path style="fill:#FFFFFF;" d="M318.596,284.162c0,3.447-2.794,6.241-6.24,6.241c-3.446,0-6.241-2.794-6.241-6.241
				c0-3.446,2.794-6.24,6.241-6.24C315.801,277.922,318.596,280.716,318.596,284.162z"/>
			<polygon style="fill:#FFFFFF;" points="316.279,300.738 308.433,300.738 311.304,284.162 313.714,284.162 			"/>
		</g>
	</g>
	<g>
		<path style="fill:#001A33;" d="M260.242,180.519c0,1.931-2.119,3.498-4.732,3.498h-0.887c-2.614,0-4.732-1.566-4.732-3.498
			v-13.116c0-1.931,2.119-3.497,4.732-3.497h0.887c2.613,0,4.732,1.566,4.732,3.497V180.519z"/>
		<path style="fill:#001A33;" d="M260.242,204.475c0,1.931-2.119,3.497-4.732,3.497h-0.887c-2.614,0-4.732-1.566-4.732-3.497
			v-13.115c0-1.932,2.119-3.498,4.732-3.498h0.887c2.613,0,4.732,1.566,4.732,3.498V204.475z"/>
		<path style="fill:#013B5A;" d="M256.988,309.265c0,2.613-1.988,4.732-4.441,4.732h-77.178c-2.454,0-4.442-2.118-4.442-4.732
			V150.154c0-2.613,1.988-4.732,4.442-4.732h77.178c2.453,0,4.441,2.119,4.441,4.732V309.265z"/>
		<rect x="173.736" y="157.695" style="fill:#FFFFFF;" width="80.442" height="138.408"/>
		<polygon style="fill:#9FDDF9;" points="254.179,296.103 173.736,296.103 173.736,157.695 		"/>
		<rect x="201.093" y="145.422" style="fill:#001A33;" width="25.73" height="6.063"/>
		<rect x="202.276" y="298.765" style="fill:#001A33;" width="19.815" height="10.943"/>
	</g>
	<g>
		<polygon style="fill:#FFFFFF;" points="305.263,239.274 258.946,280.823 203.094,280.823 203.094,141.874 305.263,141.874 		"/>
		<polygon style="fill:#69BBC3;" points="267.119,239.274 258.946,280.823 305.263,239.274 		"/>
		<rect x="218.76" y="164.351" style="fill:#808285;" width="72.88" height="8.855"/>
		<rect x="218.76" y="181.645" style="fill:#BCBEC0;" width="72.88" height="5.257"/>
		<rect x="218.76" y="193.15" style="fill:#BCBEC0;" width="72.88" height="5.257"/>
		<rect x="218.76" y="204.656" style="fill:#BCBEC0;" width="72.88" height="5.257"/>
		<rect x="218.76" y="216.16" style="fill:#BCBEC0;" width="72.88" height="5.257"/>
		<rect x="218.76" y="227.665" style="fill:#BCBEC0;" width="72.88" height="5.258"/>
		<rect x="218.76" y="239.171" style="fill:#BCBEC0;" width="36.439" height="5.257"/>
	</g>
	<g>
		<path style="fill:#1F2326;" d="M160.967,198.517c0,26.569-21.539,48.107-48.108,48.107c-26.57,0-48.108-21.539-48.108-48.107
			c0-26.57,21.539-48.108,48.108-48.108C139.429,150.408,160.967,171.946,160.967,198.517z"/>
		<path style="fill:#69BBC3;" d="M149.926,198.517c0,20.471-16.595,37.066-37.066,37.066c-20.472,0-37.067-16.595-37.067-37.066
			c0-20.472,16.595-37.067,37.067-37.067C133.331,161.449,149.926,178.044,149.926,198.517z"/>
		<path style="fill:#97C8D3;" d="M112.859,235.583c-20.472,0-37.067-16.595-37.067-37.066c0-20.472,16.595-37.067,37.067-37.067
			V235.583z"/>
		<rect x="103.263" y="241.105" style="fill:#1F2326;" width="19.193" height="14.984"/>
		<rect x="100.897" y="251.752" style="fill:#2C83B9;" width="23.924" height="66.641"/>
		<polygon style="fill:#216792;" points="124.821,318.394 100.897,318.394 100.897,251.752 108.654,308.536 		"/>
	</g>
</g>
</svg>
